<?xml version="1.0" encoding="UTF-8"?>
<svg xmlns="http://www.w3.org/2000/svg" xmlns:xlink="http://www.w3.org/1999/xlink" viewBox="0 0 50 50" width="50px" height="50px">
<g id="surface79052542">
<path style=" stroke:none;fill-rule:nonzero;fill:rgb(93.333334%,24.313726%,32.941177%);fill-opacity:1;" d="M 6.5 13.5 C 5.949219 13.5 5.5 13.949219 5.5 14.5 C 5.5 15.050781 5.949219 15.5 6.5 15.5 C 7.050781 15.5 7.5 15.050781 7.5 14.5 C 7.5 13.949219 7.050781 13.5 6.5 13.5 Z M 6.5 13.5 "/>
<path style=" stroke:none;fill-rule:nonzero;fill:rgb(94.509804%,73.725492%,9.803922%);fill-opacity:1;" d="M 38.5 6 C 38.222656 6 38 6.222656 38 6.5 C 38 6.777344 38.222656 7 38.5 7 C 38.777344 7 39 6.777344 39 6.5 C 39 6.222656 38.777344 6 38.5 6 Z M 38.5 6 "/>
<path style=" stroke:none;fill-rule:nonzero;fill:rgb(81.176472%,94.509804%,80.392158%);fill-opacity:1;" d="M 25 6.5 C 14.78125 6.5 6.5 14.78125 6.5 25 C 6.5 35.21875 14.78125 43.5 25 43.5 C 35.21875 43.5 43.5 35.21875 43.5 25 C 43.5 14.78125 35.21875 6.5 25 6.5 Z M 25 6.5 "/>
<path style=" stroke:none;fill-rule:nonzero;fill:rgb(94.509804%,73.725492%,9.803922%);fill-opacity:1;" d="M 41.5 5.5 C 40.394531 5.5 39.5 6.394531 39.5 7.5 C 39.5 8.605469 40.394531 9.5 41.5 9.5 C 42.605469 9.5 43.5 8.605469 43.5 7.5 C 43.5 6.394531 42.605469 5.5 41.5 5.5 Z M 41.5 5.5 "/>
<path style=" stroke:none;fill-rule:nonzero;fill:rgb(93.333334%,24.313726%,32.941177%);fill-opacity:1;" d="M 43.5 11 C 42.949219 11 42.5 11.449219 42.5 12 C 42.5 12.550781 42.949219 13 43.5 13 C 44.050781 13 44.5 12.550781 44.5 12 C 44.5 11.449219 44.050781 11 43.5 11 Z M 43.5 11 "/>
<path style=" stroke:none;fill-rule:nonzero;fill:rgb(98.431373%,80.392158%,34.901962%);fill-opacity:1;" d="M 40.5 37 C 39.949219 37 39.5 37.449219 39.5 38 C 39.5 38.550781 39.949219 39 40.5 39 C 41.050781 39 41.5 38.550781 41.5 38 C 41.5 37.449219 41.050781 37 40.5 37 Z M 7.5 29.5 C 6.394531 29.5 5.5 30.394531 5.5 31.5 C 5.5 32.605469 6.394531 33.5 7.5 33.5 C 8.605469 33.5 9.5 32.605469 9.5 31.5 C 9.5 30.394531 8.605469 29.5 7.5 29.5 Z M 7.5 29.5 "/>
<path style=" stroke:none;fill-rule:nonzero;fill:rgb(93.333334%,24.313726%,32.941177%);fill-opacity:1;" d="M 12.5 42.5 C 11.949219 42.5 11.5 42.949219 11.5 43.5 C 11.5 44.050781 11.949219 44.5 12.5 44.5 C 13.050781 44.5 13.5 44.050781 13.5 43.5 C 13.5 42.949219 13.050781 42.5 12.5 42.5 Z M 12.5 42.5 "/>
<path style=" stroke:none;fill-rule:nonzero;fill:rgb(100%,100%,100%);fill-opacity:1;" d="M 9.25 25.5 C 8.558594 25.5 8 26.058594 8 26.75 C 8 27.441406 8.558594 28 9.25 28 C 9.941406 28 10.5 27.441406 10.5 26.75 C 10.5 26.058594 9.941406 25.5 9.25 25.5 Z M 9.25 25.5 "/>
<path style=" stroke:none;fill-rule:nonzero;fill:rgb(94.509804%,73.725492%,9.803922%);fill-opacity:1;" d="M 10.5 33 C 10.222656 33 10 33.222656 10 33.5 C 10 33.777344 10.222656 34 10.5 34 C 10.777344 34 11 33.777344 11 33.5 C 11 33.222656 10.777344 33 10.5 33 Z M 10.5 33 "/>
<path style=" stroke:none;fill-rule:nonzero;fill:rgb(100%,100%,100%);fill-opacity:1;" d="M 40 16.5 C 39.722656 16.5 39.5 16.722656 39.5 17 C 39.5 17.277344 39.722656 17.5 40 17.5 C 40.277344 17.5 40.5 17.277344 40.5 17 C 40.5 16.722656 40.277344 16.5 40 16.5 Z M 40 16.5 "/>
<path style=" stroke:none;fill-rule:nonzero;fill:rgb(94.901961%,75.686276%,58.039218%);fill-opacity:1;" d="M 17.5 36.148438 C 15.488281 36.148438 13.851562 34.511719 13.851562 32.5 L 13.851562 17.5 C 13.851562 15.488281 15.488281 13.851562 17.5 13.851562 L 32.5 13.851562 C 34.511719 13.851562 36.148438 15.488281 36.148438 17.5 L 36.148438 32.5 C 36.148438 34.511719 34.511719 36.148438 32.5 36.148438 Z M 17.5 36.148438 "/>
<path style=" stroke:none;fill-rule:nonzero;fill:rgb(27.843139%,16.862746%,16.078432%);fill-opacity:1;" d="M 32.5 14.199219 C 34.320312 14.199219 35.800781 15.679688 35.800781 17.5 L 35.800781 32.5 C 35.800781 34.320312 34.320312 35.800781 32.5 35.800781 L 17.5 35.800781 C 15.679688 35.800781 14.199219 34.320312 14.199219 32.5 L 14.199219 17.5 C 14.199219 15.679688 15.679688 14.199219 17.5 14.199219 L 32.5 14.199219 M 32.5 13.5 L 17.5 13.5 C 15.300781 13.5 13.5 15.300781 13.5 17.5 L 13.5 32.5 C 13.5 34.699219 15.300781 36.5 17.5 36.5 L 32.5 36.5 C 34.699219 36.5 36.5 34.699219 36.5 32.5 L 36.5 17.5 C 36.5 15.300781 34.699219 13.5 32.5 13.5 Z M 32.5 13.5 "/>
<path style=" stroke:none;fill-rule:nonzero;fill:rgb(27.843139%,16.862746%,16.078432%);fill-opacity:1;" d="M 34.25 23.6875 C 34.113281 23.6875 34 23.574219 34 23.4375 L 34 21.5 C 34 21.363281 34.113281 21.25 34.25 21.25 C 34.386719 21.25 34.5 21.363281 34.5 21.5 L 34.5 23.4375 C 34.5 23.574219 34.386719 23.6875 34.25 23.6875 Z M 34.25 23.6875 "/>
<path style=" stroke:none;fill-rule:nonzero;fill:rgb(27.843139%,16.862746%,16.078432%);fill-opacity:1;" d="M 34.25 20.25 C 34.113281 20.25 34 20.136719 34 20 L 34 19 C 34 18.863281 34.113281 18.75 34.25 18.75 C 34.386719 18.75 34.5 18.863281 34.5 19 L 34.5 20 C 34.5 20.136719 34.386719 20.25 34.25 20.25 Z M 34.25 20.25 "/>
<path style=" stroke:none;fill-rule:nonzero;fill:rgb(27.843139%,16.862746%,16.078432%);fill-opacity:1;" d="M 32 34.5 L 18 34.5 C 16.621094 34.5 15.5 33.378906 15.5 32 L 15.5 18 C 15.5 16.621094 16.621094 15.5 18 15.5 L 30.6875 15.5 C 30.824219 15.5 30.9375 15.613281 30.9375 15.75 C 30.9375 15.886719 30.824219 16 30.6875 16 L 18 16 C 16.898438 16 16 16.898438 16 18 L 16 32 C 16 33.101562 16.898438 34 18 34 L 32 34 C 33.101562 34 34 33.101562 34 32 L 34 24.8125 C 34 24.675781 34.113281 24.5625 34.25 24.5625 C 34.386719 24.5625 34.5 24.675781 34.5 24.8125 L 34.5 32 C 34.5 33.378906 33.378906 34.5 32 34.5 Z M 32 34.5 "/>
<path style=" stroke:none;fill-rule:nonzero;fill:rgb(99.215686%,98.823529%,93.333334%);fill-opacity:1;" d="M 29.859375 24.25 L 25.75 24.25 L 25.75 19.792969 C 25.867188 19.3125 25.480469 18.921875 25 18.921875 C 24.519531 18.921875 24.132812 19.3125 24.25 19.792969 L 24.25 24.25 L 20.140625 24.25 C 19.660156 24.132812 19.269531 24.519531 19.269531 25 C 19.269531 25.480469 19.660156 25.867188 20.140625 25.75 L 24.25 25.75 L 24.25 30.207031 C 24.132812 30.6875 24.519531 31.078125 25 31.078125 C 25.480469 31.078125 25.867188 30.6875 25.75 30.207031 L 25.75 25.75 L 29.859375 25.75 C 30.339844 25.867188 30.730469 25.480469 30.730469 25 C 30.730469 24.519531 30.339844 24.132812 29.859375 24.25 Z M 29.859375 24.25 "/>
<path style=" stroke:none;fill-rule:nonzero;fill:rgb(27.843139%,16.862746%,16.078432%);fill-opacity:1;" d="M 25 31.324219 C 24.671875 31.324219 24.363281 31.179688 24.171875 30.9375 C 24.003906 30.722656 23.941406 30.453125 24 30.179688 L 24 26 L 20.167969 26 C 19.894531 26.058594 19.625 25.996094 19.410156 25.828125 C 19.164062 25.636719 19.019531 25.328125 19.019531 25 C 19.019531 24.671875 19.164062 24.363281 19.410156 24.171875 C 19.625 24.003906 19.894531 23.941406 20.167969 24 L 24 24 L 24 19.820312 C 23.941406 19.546875 24.003906 19.277344 24.171875 19.0625 C 24.363281 18.820312 24.671875 18.675781 25 18.675781 C 25.328125 18.675781 25.636719 18.820312 25.828125 19.0625 C 25.996094 19.277344 26.058594 19.546875 26 19.820312 L 26 24 L 29.832031 24 C 30.109375 23.941406 30.375 24.003906 30.589844 24.171875 C 30.835938 24.363281 30.980469 24.671875 30.980469 25 C 30.980469 25.328125 30.835938 25.636719 30.589844 25.828125 C 30.375 25.996094 30.109375 26.058594 29.832031 26 L 26 26 L 26 30.179688 C 26.058594 30.453125 25.996094 30.722656 25.828125 30.9375 C 25.636719 31.179688 25.328125 31.324219 25 31.324219 Z M 20.109375 25.5 L 24.5 25.5 L 24.492188 30.269531 C 24.449219 30.4375 24.507812 30.558594 24.566406 30.628906 C 24.757812 30.875 25.242188 30.875 25.433594 30.628906 C 25.492188 30.558594 25.550781 30.4375 25.507812 30.269531 L 25.5 30.207031 L 25.5 25.5 L 29.921875 25.507812 C 30.089844 25.550781 30.210938 25.492188 30.28125 25.433594 C 30.40625 25.339844 30.480469 25.175781 30.480469 25 C 30.480469 24.824219 30.40625 24.660156 30.28125 24.566406 C 30.210938 24.507812 30.089844 24.453125 29.921875 24.492188 L 29.859375 24.5 L 25.5 24.5 L 25.507812 19.730469 C 25.550781 19.5625 25.492188 19.441406 25.433594 19.371094 C 25.242188 19.125 24.757812 19.125 24.566406 19.371094 C 24.507812 19.441406 24.449219 19.5625 24.492188 19.730469 L 24.5 19.792969 L 24.5 24.5 L 20.078125 24.492188 C 19.910156 24.453125 19.789062 24.507812 19.71875 24.566406 C 19.59375 24.660156 19.519531 24.824219 19.519531 25 C 19.519531 25.175781 19.59375 25.339844 19.71875 25.433594 C 19.789062 25.492188 19.910156 25.546875 20.078125 25.507812 Z M 20.109375 25.5 "/>
</g>
</svg>
