<?xml version="1.0" encoding="UTF-8"?>
<svg xmlns="http://www.w3.org/2000/svg" xmlns:xlink="http://www.w3.org/1999/xlink" viewBox="0 0 30 30" width="30px" height="30px">
<g id="surface48954580">
<path style=" stroke:none;fill-rule:nonzero;fill:rgb(72.941178%,58.039218%,4.313726%);fill-opacity:1;" d="M 15.980469 3.988281 C 15.71875 3.996094 15.472656 4.105469 15.292969 4.292969 L 5.292969 14.292969 C 4.902344 14.683594 4.902344 15.316406 5.292969 15.707031 L 15.292969 25.707031 C 15.542969 25.96875 15.917969 26.074219 16.265625 25.980469 C 16.617188 25.890625 16.890625 25.617188 16.980469 25.265625 C 17.074219 24.917969 16.96875 24.542969 16.707031 24.292969 L 7.414062 15 L 16.707031 5.707031 C 17.003906 5.417969 17.089844 4.980469 16.929688 4.601562 C 16.769531 4.21875 16.394531 3.976562 15.980469 3.988281 Z M 22.980469 3.988281 C 22.71875 3.996094 22.472656 4.105469 22.292969 4.292969 L 12.292969 14.292969 C 11.902344 14.683594 11.902344 15.316406 12.292969 15.707031 L 22.292969 25.707031 C 22.542969 25.96875 22.917969 26.074219 23.265625 25.980469 C 23.617188 25.890625 23.890625 25.617188 23.980469 25.265625 C 24.074219 24.917969 23.96875 24.542969 23.707031 24.292969 L 14.414062 15 L 23.707031 5.707031 C 24.003906 5.417969 24.089844 4.980469 23.929688 4.601562 C 23.769531 4.21875 23.394531 3.976562 22.980469 3.988281 Z M 22.980469 3.988281 "/>
</g>
</svg>
