<?xml version="1.0" encoding="UTF-8"?>
<svg xmlns="http://www.w3.org/2000/svg" xmlns:xlink="http://www.w3.org/1999/xlink" viewBox="0 0 30 30" width="30px" height="30px">
<g id="surface48930634">
<path style=" stroke:none;fill-rule:nonzero;fill:rgb(72.941178%,58.039218%,4.313726%);fill-opacity:1;" d="M 13.035156 26.015625 C 13.292969 26.007812 13.539062 25.898438 13.722656 25.710938 L 23.722656 15.710938 C 24.113281 15.320312 24.113281 14.6875 23.722656 14.296875 L 13.722656 4.296875 C 13.472656 4.035156 13.097656 3.929688 12.746094 4.023438 C 12.398438 4.113281 12.125 4.386719 12.03125 4.738281 C 11.941406 5.089844 12.046875 5.460938 12.308594 5.710938 L 21.601562 15.003906 L 12.308594 24.296875 C 12.011719 24.585938 11.921875 25.023438 12.082031 25.402344 C 12.246094 25.785156 12.621094 26.027344 13.035156 26.015625 Z M 6.035156 26.015625 C 6.292969 26.007812 6.539062 25.898438 6.722656 25.710938 L 16.722656 15.710938 C 17.113281 15.320312 17.113281 14.6875 16.722656 14.296875 L 6.722656 4.296875 C 6.472656 4.035156 6.097656 3.929688 5.746094 4.023438 C 5.398438 4.113281 5.125 4.386719 5.03125 4.738281 C 4.941406 5.089844 5.046875 5.460938 5.308594 5.710938 L 14.601562 15.003906 L 5.308594 24.296875 C 5.011719 24.585938 4.921875 25.023438 5.082031 25.402344 C 5.246094 25.785156 5.621094 26.027344 6.035156 26.015625 Z M 6.035156 26.015625 "/>
</g>
</svg>
