<?xml version="1.0" encoding="UTF-8"?>
<svg xmlns="http://www.w3.org/2000/svg" xmlns:xlink="http://www.w3.org/1999/xlink" viewBox="0 0 64 64" width="64px" height="64px">
<g id="surface42269559">
<path style=" stroke:none;fill-rule:nonzero;fill:rgb(87.843138%,60.000002%,34.117648%);fill-opacity:1;" d="M 23.3125 5 C 16.515625 5.007812 11.007812 10.515625 11 17.3125 L 11 19 L 8 19 C 7.449219 19 7 19.449219 7 20 L 7 31 C 7 31.457031 7.3125 31.859375 7.757812 31.96875 L 11 32.78125 L 11 48 C 11.003906 51.863281 14.136719 54.996094 18 55 L 18 58 C 18 58.550781 18.449219 59 19 59 L 22 59 C 22.550781 59 23 58.550781 23 58 L 23 55 L 40 55 L 40 58 C 40 58.550781 40.449219 59 41 59 L 44 59 C 44.550781 59 45 58.550781 45 58 L 45 55 L 46 55 C 49.863281 54.996094 52.996094 51.863281 53 48 L 53 32.78125 L 56.242188 31.96875 C 56.6875 31.859375 57 31.457031 57 31 L 57 20 C 57 19.449219 56.550781 19 56 19 L 53 19 L 53 17.3125 C 52.992188 10.515625 47.484375 5.007812 40.6875 5 Z M 23.3125 7 L 40.6875 7 C 46.378906 7.007812 50.992188 11.621094 51 17.3125 L 51 20 L 13 20 L 13 17.3125 C 13.007812 11.621094 17.621094 7.007812 23.3125 7 Z M 24 9 C 22.40625 8.996094 20.878906 9.628906 19.757812 10.757812 C 18.636719 11.886719 18.007812 13.410156 18 15 C 18 15.496094 18.363281 15.914062 18.851562 15.988281 C 23.203125 16.636719 27.59375 16.976562 31.996094 17 C 32.160156 17 32.328125 17 32.496094 17 C 37.0625 17 41.628906 16.660156 46.148438 15.988281 C 46.636719 15.914062 47 15.496094 47 15 C 46.996094 11.6875 44.3125 9.003906 41 9 Z M 24 11 L 41 11 C 42.878906 11.003906 44.503906 12.3125 44.910156 14.148438 C 40.632812 14.738281 36.320312 15.023438 32.003906 15 C 28.023438 14.976562 24.046875 14.691406 20.101562 14.148438 C 20.492188 12.308594 22.121094 10.996094 24 11 Z M 27.859375 30 L 36.140625 30 L 38.839844 48 L 25.160156 48 Z M 32.125 32.003906 C 31.308594 31.96875 30.511719 32.269531 29.921875 32.835938 C 29.332031 33.402344 29 34.183594 29 35 C 29 36.65625 30.34375 38 32 38 C 33.632812 38 34.964844 36.695312 34.996094 35.0625 C 35.03125 33.429688 33.753906 32.070312 32.125 32.003906 Z M 29 41 C 28.445312 41 28 41.445312 28 42 L 28 45 C 28 45.554688 28.445312 46 29 46 L 35 46 C 35.554688 46 36 45.554688 36 45 L 36 42 C 36 41.445312 35.554688 41 35 41 Z M 29 41 "/>
</g>
</svg>
