<?xml version="1.0" encoding="UTF-8"?>
<svg xmlns="http://www.w3.org/2000/svg" xmlns:xlink="http://www.w3.org/1999/xlink" viewBox="0 0 64 64" width="64px" height="64px">
<g id="surface42283895">
<path style=" stroke:none;fill-rule:nonzero;fill:rgb(87.843138%,60.000002%,34.117648%);fill-opacity:1;" d="M 51.207031 8.28125 C 50.394531 8.296875 49.621094 8.621094 49.046875 9.195312 L 47.71875 10.519531 L 53.605469 16.40625 L 54.933594 15.082031 C 56.148438 13.859375 56.148438 11.882812 54.933594 10.664062 L 53.464844 9.195312 C 52.867188 8.597656 52.050781 8.269531 51.207031 8.28125 Z M 14.402344 10.644531 C 10.953125 10.648438 8.15625 13.445312 8.152344 16.894531 L 8.152344 49.46875 C 8.15625 52.917969 10.953125 55.714844 14.402344 55.71875 L 49.476562 55.71875 C 52.929688 55.714844 55.722656 52.917969 55.726562 49.46875 L 55.726562 38.371094 C 55.726562 38.039062 55.597656 37.71875 55.363281 37.484375 C 55.128906 37.25 54.808594 37.117188 54.476562 37.117188 C 53.789062 37.117188 53.226562 37.679688 53.226562 38.367188 L 53.226562 49.46875 C 53.226562 51.539062 51.546875 53.214844 49.476562 53.21875 L 14.402344 53.21875 C 12.332031 53.214844 10.65625 51.539062 10.652344 49.46875 L 10.652344 16.894531 C 10.65625 14.824219 12.332031 13.148438 14.402344 13.144531 L 25.503906 13.144531 C 26.191406 13.144531 26.753906 12.585938 26.753906 11.894531 C 26.753906 11.203125 26.191406 10.644531 25.503906 10.644531 Z M 45.953125 12.289062 L 27.699219 30.542969 L 33.585938 36.425781 L 51.835938 18.175781 Z M 26.523438 32.902344 L 24.722656 39.40625 L 31.226562 37.605469 Z M 26.523438 32.902344 "/>
</g>
</svg>
