<?xml version="1.0" encoding="UTF-8"?>
<svg xmlns="http://www.w3.org/2000/svg" xmlns:xlink="http://www.w3.org/1999/xlink" viewBox="0 0 128 128" width="128px" height="128px">
<g id="surface84331382">
<path style=" stroke:none;fill-rule:nonzero;fill:rgb(98.431373%,97.254902%,74.509805%);fill-opacity:1;" d="M 112 47 L 64 30 L 16 47 L 16 107 L 64 124 L 112 107 Z M 112 47 "/>
<path style=" stroke:none;fill-rule:nonzero;fill:rgb(98.431373%,97.254902%,74.509805%);fill-opacity:1;" d="M 112 47 L 64 30 L 16 47 L 16 107 L 64 124 L 112 107 Z M 112 47 "/>
<path style=" stroke:none;fill-rule:nonzero;fill:rgb(98.431373%,97.254902%,74.509805%);fill-opacity:1;" d="M 16 47 L 4 67 L 52 84 L 64 64 Z M 112 47 L 64 30 "/>
<path style=" stroke:none;fill-rule:nonzero;fill:rgb(50.980395%,44.705883%,44.313726%);fill-opacity:1;" d="M 64 67 C 62.800781 67 61.601562 66.199219 61.199219 65 C 60.601562 63.398438 61.5 61.699219 63 61.199219 L 111 44.199219 C 112.601562 43.601562 114.300781 44.5 114.800781 46 C 115.398438 47.601562 114.5 49.300781 113 49.800781 L 65 66.800781 C 64.699219 66.898438 64.300781 67 64 67 Z M 64 67 "/>
<path style=" stroke:none;fill-rule:nonzero;fill:rgb(50.980395%,44.705883%,44.313726%);fill-opacity:1;" d="M 64 127 C 63.398438 127 62.800781 126.800781 62.300781 126.5 C 61.5 125.898438 61 125 61 124 L 61 95.699219 C 61 94 62.300781 92.699219 64 92.699219 C 65.699219 92.699219 67 94 67 95.699219 L 67 119.800781 L 109 104.898438 L 109 47 C 109 45.300781 110.300781 44 112 44 C 113.699219 44 115 45.300781 115 47 L 115 107 C 115 108.300781 114.199219 109.398438 113 109.800781 L 65 126.800781 C 64.699219 126.898438 64.300781 127 64 127 Z M 64 127 "/>
<path style=" stroke:none;fill-rule:nonzero;fill:rgb(98.431373%,97.254902%,74.509805%);fill-opacity:1;" d="M 112 47 L 64 30 M 112 47 L 64 30 M 64 64 L 16 47 "/>
<path style=" stroke:none;fill-rule:nonzero;fill:rgb(50.980395%,44.705883%,44.313726%);fill-opacity:1;" d="M 13 107 C 13 108.300781 13.800781 109.398438 15 109.800781 L 63 126.800781 C 63.300781 126.898438 63.699219 127 64 127 C 65.199219 127 66.398438 126.199219 66.800781 125 C 67.398438 123.398438 66.5 121.699219 65 121.199219 L 19 104.898438 L 19 72.300781 L 13 70.199219 Z M 13 107 "/>
<path style=" stroke:none;fill-rule:nonzero;fill:rgb(98.431373%,97.254902%,74.509805%);fill-opacity:1;" d="M 124 67 L 76 84 L 64 64 L 112 47 Z M 124 67 "/>
<path style=" stroke:none;fill-rule:nonzero;fill:rgb(50.980395%,44.705883%,44.313726%);fill-opacity:1;" d="M 126.601562 65.5 L 114.601562 45.5 L 114.5 45.398438 C 114.5 45.300781 114.398438 45.300781 114.398438 45.199219 C 114.300781 45.101562 114.300781 45 114.199219 45 C 114.101562 44.898438 114.101562 44.898438 114 44.800781 C 113.898438 44.699219 113.800781 44.699219 113.699219 44.601562 C 113.601562 44.601562 113.601562 44.5 113.5 44.5 C 113.300781 44.398438 113.199219 44.300781 113 44.300781 L 65 27.300781 C 64.800781 27.199219 64.601562 27.199219 64.398438 27.199219 L 64.300781 27.199219 C 64.101562 27.199219 64 27.199219 63.800781 27.199219 C 63.699219 27.199219 63.699219 27.199219 63.601562 27.199219 C 63.398438 27.199219 63.199219 27.300781 63 27.300781 L 15 44.300781 C 15 44.300781 14.898438 44.300781 14.898438 44.398438 C 14.800781 44.5 14.601562 44.5 14.5 44.601562 C 14.300781 44.699219 14.101562 44.898438 13.898438 45.101562 L 13.800781 45.199219 C 13.699219 45.300781 13.699219 45.398438 13.601562 45.398438 C 13.601562 45.398438 13.601562 45.398438 13.5 45.5 L 1.5 65.5 C 1 66.199219 0.898438 67.199219 1.199219 68 C 1.5 68.800781 2.199219 69.5 3 69.800781 L 51 86.800781 C 51.300781 86.898438 51.699219 87 52 87 C 53 87 54 86.5 54.601562 85.5 L 64 69.800781 L 73.398438 85.5 C 74 86.5 75 87 76 87 C 76.300781 87 76.699219 86.898438 77 86.800781 L 125 69.800781 C 125.800781 69.5 126.5 68.800781 126.800781 68 C 127.101562 67.199219 127 66.199219 126.601562 65.5 Z M 67 34.199219 L 103 47 L 67 59.800781 Z M 50.699219 80.398438 L 8.5 65.398438 L 17.398438 50.601562 L 59.601562 65.601562 Z M 77.300781 80.398438 L 68.398438 65.601562 L 110.601562 50.601562 L 119.5 65.398438 Z M 77.300781 80.398438 "/>
</g>
</svg>
