<svg width="236" height="64" viewBox="0 0 236 64" fill="none" xmlns="http://www.w3.org/2000/svg">
<path d="M19.3454 22.7205C15.3454 31.2205 13.0604 39.1914 8.84536 43.2205C7.27441 44.7221 4.64735 46.9827 2.7742 45.2221C0.98137 43.537 0.491283 46.7422 0.774228 48.7221C1.27441 52.2221 4.32102 56.4355 8.27417 58.2221C12.703 60.2238 23.8454 61.2205 30.8454 60.2205C40.2807 58.2907 44.3955 53.4204 45.0453 52.7636C46.1219 51.6753 50.8543 60.0288 63.5359 59.6311C76.2176 59.2335 75.8454 57.2205 82.6491 54.1164C84.3454 56.2205 86.1464 62.4425 96.6757 63.0608C112.648 63.9986 117.984 46.7818 125.653 47.2321C138.719 47.9992 138.08 57.3712 156.806 54.0699C175.532 50.7686 173.57 41.5309 185.013 32.6865C196.457 23.842 232.376 23.4486 235.794 22.4701C234.026 22.2255 226.111 17.9929 211.316 15.8924C196.645 13.8095 201.905 14.483 186.136 13.5571C170.368 12.6313 163.639 21.4142 154.747 20.8922C147.26 20.4525 149.711 2.56545 130.338 1.42795C116.372 0.607895 114.586 7.92804 109.997 9.08651C107.394 7.22019 98.2492 -0.212246 87.9219 0.0796992C74.7898 0.450938 70.4858 8.98801 66.5559 8.19908C65.3592 7.95885 52.3454 0.407969 45.859 0.407969C37.6477 0.407969 34.3779 3.22047 30.1563 6.06182C26.7014 8.38712 23.3454 14.2205 19.3454 22.7205Z" fill="url(#paint0_linear_154_142)"/>
<defs>
<linearGradient id="paint0_linear_154_142" x1="-41.1545" y1="52.2205" x2="138.679" y2="4.38113" gradientUnits="userSpaceOnUse">
<stop stop-color="#F294BB"/>
<stop offset="1" stop-color="#F2EF97" stop-opacity="0.43"/>
</linearGradient>
</defs>
</svg>
