<?xml version="1.0" encoding="UTF-8"?>
<svg xmlns="http://www.w3.org/2000/svg" xmlns:xlink="http://www.w3.org/1999/xlink" viewBox="0 0 30 30" width="30px" height="30px">
<g id="surface42560486">
<path style=" stroke:none;fill-rule:nonzero;fill:rgb(87.843138%,60.000002%,34.117648%);fill-opacity:1;" d="M 1.707031 0.292969 L 0.292969 1.707031 L 28.292969 29.707031 L 29.707031 28.292969 L 23.679688 22.265625 C 27.777344 19.496094 29.800781 15.617188 29.824219 15.566406 C 29.941406 15.398438 30 15.203125 30 15 C 30 14.773438 29.921875 14.554688 29.78125 14.378906 C 29.679688 14.210938 23.917969 5 15 5 C 12.46875 5 10.199219 5.75 8.234375 6.820312 Z M 15 8 C 18.867188 8 22 11.132812 22 15 C 22 16.570312 21.46875 18.011719 20.59375 19.179688 L 18.4375 17.023438 C 18.792969 16.433594 19 15.742188 19 15 C 19 12.789062 17.210938 11 15 11 C 14.257812 11 13.566406 11.207031 12.972656 11.558594 L 10.820312 9.40625 C 11.988281 8.53125 13.429688 8 15 8 Z M 4.949219 9.074219 C 1.980469 11.574219 0.273438 14.285156 0.21875 14.375 C 0.078125 14.554688 0 14.773438 0 15 C 0 15.195312 0.0585938 15.386719 0.167969 15.550781 C 0.183594 15.585938 5.019531 25 15 25 C 16.851562 25 18.519531 24.671875 20.019531 24.144531 L 17.429688 21.554688 C 16.671875 21.839844 15.855469 22 15 22 C 11.132812 22 8 18.867188 8 15 C 8 14.144531 8.160156 13.328125 8.441406 12.566406 Z M 11.011719 15.109375 C 11.070312 17.226562 12.769531 18.929688 14.886719 18.988281 Z M 11.011719 15.109375 "/>
</g>
</svg>
