<?xml version="1.0" encoding="UTF-8"?>
<svg xmlns="http://www.w3.org/2000/svg" xmlns:xlink="http://www.w3.org/1999/xlink" viewBox="0 0 40 40" width="40px" height="40px">
<g id="surface42552218">
<path style=" stroke:none;fill-rule:nonzero;fill:rgb(98.823529%,89.803922%,9.803922%);fill-opacity:1;" d="M 12.5 37.5 L 12.5 34.5 L 16.5 34.5 L 16.5 17.5 L 12.5 17.5 L 12.5 14.5 L 23.5 14.5 L 23.5 34.5 L 27.5 34.5 L 27.5 37.5 Z M 12.5 37.5 "/>
<path style=" stroke:none;fill-rule:nonzero;fill:rgb(91.37255%,50.196081%,0%);fill-opacity:1;" d="M 23 15 L 23 35 L 27 35 L 27 37 L 13 37 L 13 35 L 17 35 L 17 17 L 13 17 L 13 15 L 23 15 M 24 14 L 12 14 L 12 18 L 16 18 L 16 34 L 12 34 L 12 38 L 28 38 L 28 34 L 24 34 Z M 24 14 "/>
<path style=" stroke:none;fill-rule:nonzero;fill:rgb(98.823529%,89.803922%,9.803922%);fill-opacity:1;" d="M 20 2.5 C 17.515625 2.5 15.5 4.515625 15.5 7 C 15.5 9.484375 17.515625 11.5 20 11.5 C 22.484375 11.5 24.5 9.484375 24.5 7 C 24.5 4.515625 22.484375 2.5 20 2.5 Z M 20 2.5 "/>
<path style=" stroke:none;fill-rule:nonzero;fill:rgb(91.37255%,50.196081%,0%);fill-opacity:1;" d="M 20 3 C 22.207031 3 24 4.792969 24 7 C 24 9.207031 22.207031 11 20 11 C 17.792969 11 16 9.207031 16 7 C 16 4.792969 17.792969 3 20 3 M 20 2 C 17.238281 2 15 4.238281 15 7 C 15 9.761719 17.238281 12 20 12 C 22.761719 12 25 9.761719 25 7 C 25 4.238281 22.761719 2 20 2 Z M 20 2 "/>
</g>
</svg>
