<svg xmlns="http://www.w3.org/2000/svg" xmlns:xlink="http://www.w3.org/1999/xlink" viewBox="0,0,256,256" width="48px" height="48px" fill-rule="nonzero"><defs><linearGradient x1="10.031" y1="10.031" x2="38.11" y2="38.11" gradientUnits="userSpaceOnUse" id="color-1"><stop offset="0" stop-color="#ffea56"></stop><stop offset="0.519" stop-color="#ffea56"></stop><stop offset="1" stop-color="#ffea56"></stop></linearGradient></defs><g fill="none" fill-rule="nonzero" stroke="none" stroke-width="1" stroke-linecap="butt" stroke-linejoin="miter" stroke-miterlimit="10" stroke-dasharray="" stroke-dashoffset="0" font-family="none" font-weight="none" font-size="none" text-anchor="none" style="mix-blend-mode: normal"><g transform="scale(5.33333,5.33333)"><path d="M24,44c11.045,0 20,-8.955 20,-20c0,-11.045 -8.955,-20 -20,-20c-11.045,0 -20,8.955 -20,20c0,11.045 8.955,20 20,20z" fill="url(#color-1)"></path><circle cx="16" cy="22" r="4" fill="#ffffff"></circle><circle cx="32" cy="22" r="4" fill="#ffffff"></circle><circle cx="16" cy="22" r="2" fill="#343434"></circle><circle cx="32" cy="22" r="2" fill="#343434"></circle><path d="M31,35.652c-0.235,0 -0.47,-0.082 -0.66,-0.25c-1.76,-1.549 -4.011,-2.402 -6.34,-2.402c-2.329,0 -4.58,0.853 -6.339,2.402c-0.415,0.365 -1.047,0.325 -1.411,-0.09c-0.365,-0.414 -0.325,-1.046 0.09,-1.411c2.124,-1.871 4.845,-2.901 7.66,-2.901c2.815,0 5.536,1.03 7.661,2.901c0.415,0.365 0.455,0.997 0.09,1.411c-0.198,0.225 -0.474,0.34 -0.751,0.34z" fill="#343434"></path></g></g></svg>