<?xml version="1.0" encoding="UTF-8"?>
<svg xmlns="http://www.w3.org/2000/svg" xmlns:xlink="http://www.w3.org/1999/xlink" viewBox="0 0 32 32" width="32px" height="32px">
<g id="surface42639730">
<path style=" stroke:none;fill-rule:nonzero;fill:rgb(47.843137%,20.784314%,19.215687%);fill-opacity:1;" d="M 31.351562 15.851562 L 21.851562 25.351562 C 21.761719 25.449219 21.632812 25.5 21.5 25.5 C 21.367188 25.5 21.238281 25.449219 21.148438 25.351562 L 19.730469 23.9375 C 18.082031 22.285156 18.082031 22.285156 18.207031 21.976562 C 18.234375 21.917969 18.269531 21.863281 18.316406 21.816406 L 22.136719 18 L 13.5 18 C 4.953125 18 1.496094 26.109375 1.460938 26.191406 C 1.382812 26.378906 1.203125 26.5 1 26.5 C 0.96875 26.5 0.933594 26.496094 0.902344 26.488281 C 0.667969 26.445312 0.5 26.238281 0.5 26 C 0.507812 18.824219 6.324219 13.007812 13.5 13 L 22.136719 13 L 18.316406 9.183594 C 18.269531 9.136719 18.234375 9.082031 18.207031 9.023438 C 18.082031 8.714844 18.082031 8.714844 19.730469 7.0625 L 21.148438 5.648438 C 21.238281 5.550781 21.367188 5.5 21.5 5.5 C 21.632812 5.5 21.761719 5.550781 21.851562 5.648438 L 31.351562 15.148438 C 31.449219 15.238281 31.5 15.367188 31.5 15.5 C 31.5 15.632812 31.449219 15.761719 31.351562 15.851562 Z M 31.351562 15.851562 "/>
</g>
</svg>
