<?xml version="1.0" encoding="UTF-8"?>
<svg xmlns="http://www.w3.org/2000/svg" xmlns:xlink="http://www.w3.org/1999/xlink" viewBox="0 0 30 30" width="30px" height="30px">
<g id="surface42659597">
<path style=" stroke:none;fill-rule:nonzero;fill:rgb(87.843138%,60.000002%,34.117648%);fill-opacity:1;" d="M 15 5 C 6.082031 5 0.320312 14.210938 0.21875 14.378906 C 0.078125 14.554688 0 14.773438 0 15 C 0 15.195312 0.0546875 15.382812 0.164062 15.542969 C 0.164062 15.546875 0.164062 15.546875 0.167969 15.550781 C 0.183594 15.585938 5.019531 25 15 25 C 24.9375 25 29.765625 15.679688 29.824219 15.5625 C 29.832031 15.558594 29.835938 15.550781 29.835938 15.542969 C 29.945312 15.382812 30 15.195312 30 15 C 30 14.773438 29.925781 14.558594 29.785156 14.378906 C 29.785156 14.378906 29.785156 14.378906 29.78125 14.378906 C 29.679688 14.210938 23.917969 5 15 5 Z M 15 8 C 18.867188 8 22 11.132812 22 15 C 22 18.867188 18.867188 22 15 22 C 11.132812 22 8 18.867188 8 15 C 8 11.132812 11.132812 8 15 8 Z M 15 12 C 13.34375 12 12 13.34375 12 15 C 12 16.65625 13.34375 18 15 18 C 16.65625 18 18 16.65625 18 15 C 18 13.34375 16.65625 12 15 12 Z M 15 12 "/>
</g>
</svg>
