<?xml version="1.0" encoding="UTF-8"?>
<svg xmlns="http://www.w3.org/2000/svg" xmlns:xlink="http://www.w3.org/1999/xlink" viewBox="0 0 16 16" width="16px" height="16px">
<g id="surface42223747">
<path style=" stroke:none;fill-rule:nonzero;fill:rgb(47.843137%,20.784314%,19.215687%);fill-opacity:1;" d="M 4 2 C 3.359375 2 2.824219 2.277344 2.492188 2.664062 C 2.15625 3.054688 2 3.539062 2 4 L 3 4 C 3 3.773438 3.085938 3.503906 3.25 3.316406 C 3.410156 3.128906 3.625 3 4 3 C 4.417969 3 5 3.351562 5 4 C 5 4.023438 4.921875 4.222656 4.683594 4.453125 C 4.445312 4.683594 4.09375 4.933594 3.738281 5.15625 C 3.023438 5.59375 2.296875 5.917969 2.296875 5.917969 L 2 6.046875 L 2 7 L 6 7 L 6 6 L 4.269531 6 C 4.660156 5.757812 5.058594 5.484375 5.378906 5.171875 C 5.703125 4.859375 6 4.5 6 4 C 6 2.773438 4.960938 2 4 2 Z M 11 2 L 11 12.042969 L 8.726562 9.773438 L 8.023438 10.480469 L 11.5 13.957031 L 14.980469 10.480469 L 14.269531 9.773438 L 12 12.042969 L 12 2 Z M 4 9 C 4 9.5625 3.6875 10 3 10 L 3 11 C 3.378906 11 3.710938 10.894531 4 10.726562 L 4 14 L 5 14 L 5 9 Z M 4 9 "/>
</g>
</svg>
