<?xml version="1.0" encoding="UTF-8"?>
<svg xmlns="http://www.w3.org/2000/svg" xmlns:xlink="http://www.w3.org/1999/xlink" viewBox="0 0 48 48" width="48px" height="48px">
<g id="surface42790891">
<path style=" stroke:none;fill-rule:nonzero;fill:rgb(100%,89.803922%,0%);fill-opacity:1;" d="M 24.007812 5 C 23.4375 4.996094 22.914062 5.320312 22.65625 5.828125 L 17.507812 16.132812 L 5.273438 18.015625 C 4.714844 18.105469 4.25 18.496094 4.074219 19.035156 C 3.898438 19.570312 4.039062 20.160156 4.441406 20.558594 L 12.902344 29.023438 L 11.019531 41.269531 C 10.929688 41.832031 11.167969 42.390625 11.625 42.71875 C 12.085938 43.046875 12.691406 43.089844 13.195312 42.828125 L 24 37.191406 L 34.804688 42.828125 C 35.308594 43.089844 35.914062 43.046875 36.375 42.71875 C 36.832031 42.390625 37.070312 41.832031 36.980469 41.269531 L 35.097656 29.023438 L 43.558594 20.558594 C 43.960938 20.160156 44.101562 19.570312 43.925781 19.035156 C 43.75 18.496094 43.285156 18.105469 42.726562 18.015625 L 30.492188 16.132812 L 25.339844 5.828125 C 25.089844 5.324219 24.574219 5.003906 24.011719 5 Z M 24.007812 5 "/>
</g>
</svg>
