<?xml version="1.0" encoding="UTF-8"?>
<svg xmlns="http://www.w3.org/2000/svg" xmlns:xlink="http://www.w3.org/1999/xlink" viewBox="0 0 24 24" width="24px" height="24px">
<g id="surface72811873">
<path style=" stroke:none;fill-rule:nonzero;fill:rgb(100%,89.803922%,0%);fill-opacity:1;" d="M 12 6.019531 L 13.617188 9.296875 L 14.082031 10.242188 L 15.125 10.390625 L 18.742188 10.917969 L 16.125 13.46875 L 15.371094 14.203125 L 15.550781 15.238281 L 16.167969 18.84375 L 12.929688 17.144531 L 12 16.652344 L 11.070312 17.140625 L 7.832031 18.84375 L 8.449219 15.238281 L 8.628906 14.203125 L 7.875 13.46875 L 5.257812 10.917969 L 8.875 10.390625 L 9.917969 10.242188 L 10.382812 9.296875 L 12 6.019531 M 12 1.5 L 8.589844 8.414062 L 0.960938 9.519531 L 6.480469 14.902344 L 5.175781 22.5 L 12 18.914062 L 18.824219 22.5 L 17.519531 14.902344 L 23.039062 9.519531 L 15.410156 8.410156 Z M 12 1.5 "/>
</g>
</svg>
