<?xml version="1.0" encoding="UTF-8"?>
<svg xmlns="http://www.w3.org/2000/svg" xmlns:xlink="http://www.w3.org/1999/xlink" viewBox="0 0 50 50" width="50px" height="50px">
<g id="surface42238680">
<path style=" stroke:none;fill-rule:nonzero;fill:rgb(75.686276%,30.19608%,30.19608%);fill-opacity:1;" d="M 21 0 C 19.355469 0 18 1.355469 18 3 L 18 4 L 9.6875 4 C 8.453125 4 7.375 4.847656 6.96875 6 C 4.808594 6.070312 3.066406 7.847656 3 10.0625 C 3.035156 10.585938 3.46875 11 4 11 L 46 11 C 46.53125 11 46.96875 10.585938 47 10.0625 C 46.933594 7.847656 45.191406 6.070312 43.03125 6 C 42.625 4.847656 41.546875 4 40.3125 4 L 32 4 L 32 3 C 32 1.355469 30.644531 0 29 0 Z M 21 2 L 29 2 C 29.554688 2 30 2.445312 30 3 L 30 4 L 20 4 L 20 3 C 20 2.445312 20.445312 2 21 2 Z M 5.28125 13 L 10.21875 46.75 C 10.488281 48.636719 12.074219 50 14 50 L 36 50 C 37.851562 50 39.359375 48.722656 39.78125 46.75 L 44.71875 13 Z M 12.28125 16.3125 C 12.828125 16.246094 13.332031 16.609375 13.40625 17.15625 L 16.6875 42.0625 C 16.757812 42.609375 16.390625 43.117188 15.84375 43.1875 C 15.800781 43.195312 15.730469 43.1875 15.6875 43.1875 C 15.195312 43.1875 14.785156 42.847656 14.71875 42.34375 L 11.40625 17.4375 C 11.332031 16.890625 11.734375 16.386719 12.28125 16.3125 Z M 20.75 16.3125 C 21.277344 16.285156 21.789062 16.695312 21.8125 17.25 L 22.90625 42.15625 C 22.929688 42.707031 22.488281 43.164062 21.9375 43.1875 C 21.921875 43.1875 21.921875 43.1875 21.90625 43.1875 C 21.375 43.1875 20.929688 42.785156 20.90625 42.25 L 19.8125 17.34375 C 19.789062 16.792969 20.199219 16.335938 20.75 16.3125 Z M 29.25 16.3125 C 29.800781 16.335938 30.210938 16.792969 30.1875 17.34375 L 29.09375 42.25 C 29.070312 42.785156 28.625 43.1875 28.09375 43.1875 C 28.078125 43.1875 28.078125 43.1875 28.0625 43.1875 C 27.511719 43.164062 27.070312 42.707031 27.09375 42.15625 L 28.1875 17.25 C 28.210938 16.699219 28.707031 16.300781 29.25 16.3125 Z M 37.71875 16.3125 C 38.265625 16.382812 38.667969 16.890625 38.59375 17.4375 L 35.28125 42.34375 C 35.214844 42.847656 34.804688 43.1875 34.3125 43.1875 C 34.269531 43.1875 34.203125 43.195312 34.15625 43.1875 C 33.609375 43.117188 33.238281 42.609375 33.3125 42.0625 L 36.59375 17.15625 C 36.664062 16.609375 37.167969 16.242188 37.71875 16.3125 Z M 37.71875 16.3125 "/>
</g>
</svg>
